HIERARCHY
ROOT Pelvis
{
	OFFSET 0.000000 0.000000 0.000000
	CHANNELS 6 Xposition Yposition Zposition Zrotation Yrotation Xrotation 
	JOINT Left_hip
	{
		OFFSET 0.076090 -0.089427 -0.010735
		CHANNELS 3 Zrotation Yrotation Xrotation
		JOINT Left_knee
		{
			OFFSET 0.030200 -0.359518 -0.003501
			CHANNELS 3 Zrotation Yrotation Xrotation
			JOINT Left_ankle
			{
				OFFSET -0.011005 -0.371022 -0.045888
				CHANNELS 3 Zrotation Yrotation Xrotation
				JOINT Left_foot
				{
					OFFSET 0.023930 -0.052103 0.111084
					CHANNELS 3 Zrotation Yrotation Xrotation
					End Site
					{
						OFFSET 0.000000 0.000000 0.000000
					}
				}
			}
		}
	}
	JOINT Right_hip
	{
		OFFSET -0.073836 -0.088112 -0.007709
		CHANNELS 3 Zrotation Yrotation Xrotation
		JOINT Right_knee
		{
			OFFSET -0.035715 -0.367809 -0.006536
			CHANNELS 3 Zrotation Yrotation Xrotation
			JOINT Right_ankle
			{
				OFFSET 0.013718 -0.371958 -0.043815
				CHANNELS 3 Zrotation Yrotation Xrotation
				JOINT Right_foot
				{
					OFFSET -0.021936 -0.046387 0.114542
					CHANNELS 3 Zrotation Yrotation Xrotation
					End Site
					{
						OFFSET 0.000000 0.000000 0.000000
					}
				}
			}
		}
	}
	JOINT Spine1
	{
		OFFSET -0.001865 0.102064 -0.019455
		CHANNELS 3 Zrotation Yrotation Xrotation
		JOINT Spine2
		{
			OFFSET 0.003082 0.129260 -0.001938
			CHANNELS 3 Zrotation Yrotation Xrotation
			JOINT Spine3
			{
				OFFSET 0.001104 0.048093 0.026561
				CHANNELS 3 Zrotation Yrotation Xrotation
				JOINT Neck
				{
					OFFSET -0.002010 0.204222 -0.047183
					CHANNELS 3 Zrotation Yrotation Xrotation
					JOINT Head
					{
						OFFSET 0.005050 0.063649 0.048489
						CHANNELS 3 Zrotation Yrotation Xrotation
						End Site
						{
							OFFSET 0.000000 0.000000 0.000000
						}
					}
				}
				JOINT Left_collar
				{
					OFFSET 0.072979 0.114065 -0.031633
					CHANNELS 3 Zrotation Yrotation Xrotation
					JOINT Left_shoulder
					{
						OFFSET 0.083419 0.032092 -0.006530
						CHANNELS 3 Zrotation Yrotation Xrotation
						JOINT Left_elbow
						{
							OFFSET 0.239393 -0.012014 -0.025060
							CHANNELS 3 Zrotation Yrotation Xrotation
							JOINT Left_wrist
							{
								OFFSET 0.227297 0.008116 0.000384
								CHANNELS 3 Zrotation Yrotation Xrotation
								JOINT Left_palm
								{
									OFFSET 0.074607 -0.009248 -0.012277
									CHANNELS 3 Zrotation Yrotation Xrotation
									End Site
									{
										OFFSET 0.000000 0.000000 0.000000
									}
								}
							}
						}
					}
				}
				JOINT Right_collar
				{
					OFFSET -0.074980 0.111880 -0.037894
					CHANNELS 3 Zrotation Yrotation Xrotation
					JOINT Right_shoulder
					{
						OFFSET -0.087565 0.034353 -0.009323
						CHANNELS 3 Zrotation Yrotation Xrotation
						JOINT Right_elbow
						{
							OFFSET -0.236838 -0.013719 -0.019794
							CHANNELS 3 Zrotation Yrotation Xrotation
							JOINT Right_wrist
							{
								OFFSET -0.235053 0.006433 -0.003853
								CHANNELS 3 Zrotation Yrotation Xrotation
								JOINT Right_palm
								{
									OFFSET -0.075499 -0.006894 -0.009792
									CHANNELS 3 Zrotation Yrotation Xrotation
									End Site
									{
										OFFSET 0.000000 0.000000 0.000000
									}
								}
							}
						}
					}
				}
			}
		}
	}
}
MOTION
Frames: 10
Frame Time: 0.100000
0.192382 0.344227 -0.328902 176.298982 27.208471 -67.750324 0.458154 -7.298345 -16.903265 -5.040256 5.786514 71.720669 2.673543 12.391869 8.023630 -4.619635 10.128354 -18.581712 -0.233922 3.153627 -28.561266 -5.834113 -11.842630 112.258696 -3.422423 -8.047741 17.544847 11.506361 -5.136750 -15.035296 -0.251966 -1.907337 43.123445 1.126256 2.869211 17.474224 0.312110 -2.188567 -0.101740 -10.169172 -11.685698 15.346230 -2.719714 -1.548057 -3.325503 -25.532801 4.641858 10.698090 -56.607530 4.134523 5.898112 38.989139 -64.121400 -22.029998 -6.984913 -6.772568 -18.486817 3.518397 0.372951 -9.620705 18.795820 7.678009 8.451239 48.685551 -5.428855 14.893853 -20.046661 64.246175 -10.172313 2.653986 1.455038 -12.811128 0.675776 2.938098 0.217763 
0.190535 0.343455 -0.328781 176.449560 28.143125 -66.609865 -0.562136 -9.260946 -18.397413 -4.574056 6.611359 78.826096 5.325231 12.877486 6.004141 -6.340882 11.317609 -19.549545 -1.168784 3.043216 -28.161909 -5.524263 -10.771610 110.040269 -3.039116 -10.835286 19.714116 8.853465 -2.924801 -15.390021 0.415991 -1.635207 42.505167 0.993007 3.557234 17.668069 -0.007814 -1.873140 1.094275 -10.488451 -2.286566 16.040151 -7.353523 8.189925 0.718105 -25.036282 4.124278 10.906497 -56.656550 2.982891 6.317491 35.093050 -66.165844 -16.838721 -5.955309 -7.159719 -18.534875 2.822566 -0.092006 -9.445127 18.821558 7.079471 9.096345 48.286684 -4.111388 16.048108 -21.637218 63.541347 -12.878036 1.758746 1.564193 -12.900466 1.980856 2.820956 -0.909340 
0.188680 0.342377 -0.327364 176.484500 29.205255 -65.397790 -1.046751 -10.222673 -20.517269 -4.255424 7.670842 85.115000 6.271962 12.245279 5.199485 -8.121919 12.310899 -20.959344 -1.700421 2.951177 -26.208227 -4.167922 -9.237430 104.576808 -2.356431 -11.551094 18.006552 7.088338 -1.379109 -15.424830 1.401324 -1.378347 42.167788 0.691163 4.093928 17.411380 -0.336468 -1.491332 2.104401 -10.377733 4.903588 16.250601 -10.538516 15.670231 3.944534 -25.968536 4.448501 10.192769 -56.824773 1.733946 6.468867 31.350649 -65.335661 -13.243663 -4.212130 -7.526489 -17.990324 2.604177 -0.460012 -8.031248 19.696754 5.881914 9.370586 46.785760 -3.034664 16.775733 -21.309240 62.931589 -13.582255 -0.715126 1.987553 -11.688985 3.046888 2.869696 -1.155626 
0.188679 0.341475 -0.324026 176.365393 30.169989 -63.934676 -0.854965 -10.767541 -23.710967 -4.503288 8.543123 90.577921 5.307599 10.225146 6.283262 -9.080924 12.265284 -22.211991 -1.556764 3.461945 -25.983136 -3.369271 -8.033610 100.458850 -1.412745 -11.202187 15.248975 5.685878 -0.959840 -15.610696 2.137828 -1.231608 42.846241 0.589642 4.342389 16.537132 -0.359310 -1.190239 2.459400 -11.592101 11.664943 14.483896 -13.516084 21.794117 5.668479 -25.992018 3.801057 9.673394 -57.545599 0.862346 6.789589 28.825736 -63.984251 -9.959514 -2.363327 -8.441212 -16.776702 2.425147 -0.391392 -7.205275 20.113423 5.462177 9.588774 46.265561 -1.997549 16.955616 -22.513350 62.185965 -15.160740 -2.337613 2.848731 -12.005233 3.496730 2.495100 -0.830606 
0.188792 0.340447 -0.321842 176.700740 31.458836 -61.676327 -1.043592 -12.486946 -26.870116 -4.731055 10.138004 92.263346 6.573120 8.777685 7.429834 -11.268906 12.368954 -22.574406 -2.311424 4.026708 -29.110907 -3.059653 -7.537402 100.125848 -1.064989 -11.266144 16.865143 4.773118 -0.153407 -15.972419 2.236033 -0.883348 43.176858 0.451045 4.777767 16.176293 -0.520340 -0.809142 2.494232 -12.580201 15.737929 12.406205 -15.005205 25.625177 4.975183 -25.572141 2.161483 9.355116 -57.182877 -0.681558 7.415055 26.818556 -62.585935 -8.758275 -1.741847 -8.669818 -16.877226 1.511256 -0.765588 -7.444649 20.056831 6.309405 10.068976 46.010067 -0.294033 17.190772 -24.415123 60.049512 -18.242843 -2.294668 2.465343 -12.610526 4.362557 2.578632 -1.666137 
0.188620 0.339033 -0.319597 176.914985 31.625963 -59.792296 -0.584126 -12.211985 -28.599983 -5.555022 10.097767 91.293845 6.389103 7.840353 6.874392 -11.791776 12.356137 -22.504162 -1.895701 4.162473 -30.843744 -1.956047 -7.918661 99.868164 -0.756824 -8.851676 13.362951 5.243184 -0.494631 -15.187279 2.423357 -0.737162 44.220237 0.030522 5.070018 15.826411 -0.518570 -0.351053 2.198567 -12.718946 17.767680 11.509660 -15.234285 26.346457 4.462224 -25.126202 0.161931 8.584288 -56.999416 -1.803441 8.083343 26.540172 -60.673742 -9.436766 -1.608339 -8.985791 -17.339888 1.577697 -0.350359 -6.969740 19.159648 8.076277 10.234018 45.061258 1.569928 16.497070 -21.798481 58.394446 -16.693225 -1.472000 2.546773 -14.649941 4.349741 2.352298 -1.333565 
0.184285 0.337156 -0.315008 177.298257 31.758587 -57.888305 -0.670877 -12.176006 -29.826630 -5.579087 10.427329 91.991302 5.884682 7.629445 6.646490 -11.185395 12.898514 -23.274542 -1.853162 3.677081 -31.341615 -2.042839 -7.937268 99.686726 -0.739881 -10.159399 10.279124 2.856469 0.824438 -15.293199 2.734833 -0.989163 44.666866 -0.345869 4.999403 15.507174 -0.627294 -0.263149 2.494690 -13.456061 19.302882 10.796567 -15.737321 27.158395 5.404126 -23.928212 -1.437772 8.388872 -57.290954 -3.198887 8.236800 25.405983 -59.778910 -8.746528 -1.115621 -8.941067 -18.377972 2.518137 -0.098340 -5.776592 17.909092 9.355360 10.037693 44.752126 2.576890 16.559046 -18.967940 57.887665 -13.959317 -2.342695 2.503915 -13.791955 3.840806 2.140745 -1.061300 
0.181650 0.334430 -0.309839 176.939596 31.894456 -55.628884 -0.005730 -12.259970 -32.054892 -6.058902 10.698741 94.364910 5.657854 6.343245 8.395087 -12.063613 13.922739 -24.714559 -1.840360 3.521571 -31.827197 -1.290207 -7.983646 99.967856 -0.688296 -10.825860 10.578235 1.417954 2.510505 -15.930297 2.771133 -0.599876 45.185706 -0.246308 4.927805 15.106786 -0.632707 -0.234768 2.466849 -12.337172 19.154925 9.430038 -14.553014 25.886762 5.839568 -24.059573 -3.183725 8.046457 -55.092542 -5.434467 8.862424 21.733840 -58.690234 -6.750619 1.424785 -8.509493 -17.323635 1.784185 -0.713752 -6.450572 18.459243 10.298567 10.145210 44.225028 2.365372 17.154238 -17.687758 57.706674 -14.346546 -8.027381 1.973680 -14.220040 6.021777 2.738533 -2.399972 
0.179178 0.331882 -0.308201 176.425825 31.918827 -52.791007 0.570710 -11.926833 -33.999716 -7.415724 10.123408 93.733001 4.901410 4.861684 9.820090 -11.929717 15.004081 -26.186666 -1.886016 3.379150 -33.422526 0.886383 -7.496772 98.537054 0.698245 -9.907473 9.752663 -1.729122 4.278474 -16.619529 2.655501 -0.398513 45.994728 -0.080985 4.226798 14.880997 -0.433799 -0.381024 2.414302 -11.385028 18.573318 6.937793 -12.819986 22.833111 5.504492 -22.827226 -6.904441 7.399316 -54.157086 -8.580074 10.285189 16.680011 -55.844764 -3.287909 3.357776 -7.521767 -16.095574 0.239293 -1.406622 -7.221656 17.707901 12.586804 9.418289 44.539404 3.307874 17.262314 -16.424693 56.480954 -13.858514 -10.629314 0.885965 -13.335111 8.395980 3.713980 -4.206733 
0.174816 0.329533 -0.307471 176.127556 31.398777 -49.570454 1.627389 -11.759942 -37.302471 -8.192354 9.894922 93.656762 4.566842 4.682160 10.129055 -11.621241 13.804334 -25.521273 -2.303968 3.360599 -36.868009 1.259822 -7.811612 98.671084 1.215087 -9.066761 9.511351 -1.610006 3.766139 -15.663277 2.347189 -0.458509 47.812362 0.011932 3.176678 13.186363 -0.242488 -0.478822 2.534872 -10.836932 16.380976 5.927119 -10.295061 19.692685 5.669822 -21.868782 -10.456843 7.213545 -51.833661 -9.889161 11.560890 12.554926 -53.648442 0.711423 10.679336 -7.909966 -11.561158 -0.911644 -1.809108 -8.115792 16.989136 15.442803 8.646167 43.064040 5.161479 17.323211 -11.876696 54.759498 -6.256675 -15.763022 2.508198 -5.309586 8.311314 4.539080 -4.990651 
